<svg xmlns="http://www.w3.org/2000/svg" height="512pt" version="1.1" viewBox="0 -34 512.00109 512" width="512pt">
<g id="surface1">
<path d="M 476.851562 147.152344 L 476.851562 120.035156 C 476.851562 89.0625 452.074219 64.285156 421.097656 64.285156 L 274.882812 64.285156 C 263.429688 64.285156 252.675781 57.972656 246.832031 48.15625 L 234.679688 27.46875 C 224.507812 10.753906 206.160156 0 186.523438 0 L 90.800781 0 C 75.371094 0 60.878906 6.3125 50.242188 17.53125 C 39.605469 28.753906 34.113281 43.597656 34.816406 59.023438 L 38.789062 147.265625 L 35.050781 147.265625 C 24.882812 147.265625 15.296875 151.589844 8.632812 159.1875 C 1.972656 166.785156 -1.066406 176.953125 0.335938 187.003906 L 29.207031 395.636719 C 33.0625 423.21875 56.90625 444.140625 84.722656 444.140625 L 427.527344 444.140625 C 455.460938 444.140625 479.304688 423.101562 483.164062 395.402344 L 511.679688 187.007812 C 513.082031 176.957031 509.8125 166.785156 503.148438 159.191406 C 496.605469 151.59375 487.371094 147.152344 476.851562 147.152344 Z M 58.074219 58.089844 C 57.722656 49.089844 60.878906 40.324219 67.074219 33.777344 C 73.269531 27.234375 81.683594 23.375 90.683594 23.375 L 186.40625 23.375 C 197.859375 23.375 208.613281 29.6875 214.457031 39.503906 L 226.613281 60.191406 C 236.664062 77.023438 255.132812 87.777344 274.769531 87.777344 L 420.984375 87.777344 C 438.980469 87.777344 453.359375 102.035156 453.359375 120.152344 L 453.359375 147.265625 L 62.164062 147.265625 Z M 488.539062 183.734375 L 460.019531 392.246094 C 457.800781 408.375 443.890625 420.765625 427.644531 420.765625 L 84.839844 420.765625 C 68.59375 420.765625 54.683594 408.375 52.464844 392.363281 L 23.359375 183.851562 C 23.359375 180.460938 23.828125 177.1875 26.164062 174.617188 C 28.386719 172.046875 31.542969 170.644531 34.933594 170.644531 L 476.96875 170.644531 C 480.355469 170.644531 483.511719 171.929688 485.734375 174.617188 C 488.070312 177.1875 489.007812 180.34375 488.539062 183.734375 Z M 488.539062 183.734375 " style=" stroke:none;fill-rule:nonzero;fill:rgb(0%,0%,0%);fill-opacity:1;" />
<path d="M 315.792969 292.898438 L 267.636719 344.675781 L 267.636719 217.042969 C 267.636719 210.613281 262.378906 205.355469 255.949219 205.355469 C 249.519531 205.355469 244.261719 210.613281 244.261719 217.042969 L 244.261719 344.675781 L 196.105469 292.898438 C 191.664062 288.222656 184.300781 287.871094 179.625 292.316406 C 174.953125 296.753906 174.601562 304.121094 179.042969 308.792969 L 247.535156 382.3125 C 249.753906 384.648438 252.792969 386.050781 256.066406 386.050781 C 259.339844 386.050781 262.375 384.648438 264.597656 382.3125 L 333.089844 308.792969 C 337.53125 304.121094 337.179688 296.640625 332.503906 292.316406 C 327.597656 287.871094 320.234375 288.105469 315.792969 292.898438 Z M 315.792969 292.898438 " style=" stroke:none;fill-rule:nonzero;fill:rgb(0%,0%,0%);fill-opacity:1;" />
</g>
</svg>