<svg width="488" height="57" viewBox="0 0 488 57" fill="none" xmlns="http://www.w3.org/2000/svg">
	<rect x="123" y="2" width="102" height="51" stroke="#9880DD" stroke-width="4" />
	<path d="M21.3047 36.2109C21.3047 34.7109 20.7734 33.5547 19.7109 32.7422C18.6641 31.9297 16.7656 31.1094 14.0156 30.2812C11.2656 29.4531 9.07812 28.5312 7.45312 27.5156C4.34375 25.5625 2.78906 23.0156 2.78906 19.875C2.78906 17.125 3.90625 14.8594 6.14062 13.0781C8.39062 11.2969 11.3047 10.4062 14.8828 10.4062C17.2578 10.4062 19.375 10.8438 21.2344 11.7188C23.0938 12.5937 24.5547 13.8438 25.6172 15.4688C26.6797 17.0781 27.2109 18.8672 27.2109 20.8359H21.3047C21.3047 19.0547 20.7422 17.6641 19.6172 16.6641C18.5078 15.6484 16.9141 15.1406 14.8359 15.1406C12.8984 15.1406 11.3906 15.5547 10.3125 16.3828C9.25 17.2109 8.71875 18.3672 8.71875 19.8516C8.71875 21.1016 9.29688 22.1484 10.4531 22.9922C11.6094 23.8203 13.5156 24.6328 16.1719 25.4297C18.8281 26.2109 20.9609 27.1094 22.5703 28.125C24.1797 29.125 25.3594 30.2812 26.1094 31.5938C26.8594 32.8906 27.2344 34.4141 27.2344 36.1641C27.2344 39.0078 26.1406 41.2734 23.9531 42.9609C21.7812 44.6328 18.8281 45.4688 15.0938 45.4688C12.625 45.4688 10.3516 45.0156 8.27344 44.1094C6.21094 43.1875 4.60156 41.9219 3.44531 40.3125C2.30469 38.7031 1.73438 36.8281 1.73438 34.6875H7.66406C7.66406 36.625 8.30469 38.125 9.58594 39.1875C10.8672 40.25 12.7031 40.7812 15.0938 40.7812C17.1562 40.7812 18.7031 40.3672 19.7344 39.5391C20.7812 38.6953 21.3047 37.5859 21.3047 36.2109ZM52.3828 29.7656H38.3672V40.2656H54.75V45H32.4375V10.875H54.5859V15.6562H38.3672V25.0781H52.3828V29.7656ZM79.5234 29.7656H65.5078V40.2656H81.8906V45H59.5781V10.875H81.7266V15.6562H65.5078V25.0781H79.5234V29.7656ZM86.7188 45V10.875H96.7969C99.8125 10.875 102.484 11.5469 104.812 12.8906C107.156 14.2344 108.969 16.1406 110.25 18.6094C111.531 21.0781 112.172 23.9062 112.172 27.0938V28.8047C112.172 32.0391 111.523 34.8828 110.227 37.3359C108.945 39.7891 107.109 41.6797 104.719 43.0078C102.344 44.3359 99.6172 45 96.5391 45H86.7188ZM92.6484 15.6562V40.2656H96.5156C99.625 40.2656 102.008 39.2969 103.664 37.3594C105.336 35.4062 106.188 32.6094 106.219 28.9688V27.0703C106.219 23.3672 105.414 20.5391 103.805 18.5859C102.195 16.6328 99.8594 15.6562 96.7969 15.6562H92.6484ZM130.031 45V10.875H141.727C145.586 10.875 148.523 11.6484 150.539 13.1953C152.555 14.7422 153.562 17.0469 153.562 20.1094C153.562 21.6719 153.141 23.0781 152.297 24.3281C151.453 25.5781 150.219 26.5469 148.594 27.2344C150.438 27.7344 151.859 28.6797 152.859 30.0703C153.875 31.4453 154.383 33.1016 154.383 35.0391C154.383 38.2422 153.352 40.7031 151.289 42.4219C149.242 44.1406 146.305 45 142.477 45H130.031ZM135.961 29.6016V40.2656H142.547C144.406 40.2656 145.859 39.8047 146.906 38.8828C147.953 37.9609 148.477 36.6797 148.477 35.0391C148.477 31.4922 146.664 29.6797 143.039 29.6016H135.961ZM135.961 25.2422H141.773C143.617 25.2422 145.055 24.8281 146.086 24C147.133 23.1562 147.656 21.9688 147.656 20.4375C147.656 18.75 147.172 17.5312 146.203 16.7812C145.25 16.0312 143.758 15.6562 141.727 15.6562H135.961V25.2422ZM187.547 28.8281C187.547 32.1719 186.969 35.1094 185.812 37.6406C184.656 40.1562 183 42.0938 180.844 43.4531C178.703 44.7969 176.234 45.4688 173.438 45.4688C170.672 45.4688 168.203 44.7969 166.031 43.4531C163.875 42.0938 162.203 40.1641 161.016 37.6641C159.844 35.1641 159.25 32.2812 159.234 29.0156V27.0938C159.234 23.7656 159.82 20.8281 160.992 18.2812C162.18 15.7344 163.844 13.7891 165.984 12.4453C168.141 11.0859 170.609 10.4062 173.391 10.4062C176.172 10.4062 178.633 11.0781 180.773 12.4219C182.93 13.75 184.594 15.6719 185.766 18.1875C186.938 20.6875 187.531 23.6016 187.547 26.9297V28.8281ZM181.617 27.0469C181.617 23.2656 180.898 20.3672 179.461 18.3516C178.039 16.3359 176.016 15.3281 173.391 15.3281C170.828 15.3281 168.82 16.3359 167.367 18.3516C165.93 20.3516 165.195 23.1875 165.164 26.8594V28.8281C165.164 32.5781 165.891 35.4766 167.344 37.5234C168.812 39.5703 170.844 40.5938 173.438 40.5938C176.062 40.5938 178.078 39.5938 179.484 37.5938C180.906 35.5938 181.617 32.6719 181.617 28.8281V27.0469ZM204.68 23.2031L211.852 10.875H218.695L208.383 27.7969L218.93 45H212.016L204.68 32.4844L197.32 45H190.43L201 27.7969L190.664 10.875H197.508L204.68 23.2031ZM235.758 45V10.875H245.391C248.359 10.875 250.984 11.5312 253.266 12.8438C255.547 14.1562 257.305 16.0234 258.539 18.4453C259.789 20.8672 260.422 23.6484 260.438 26.7891V28.9688C260.438 32.1875 259.812 35.0078 258.562 37.4297C257.328 39.8516 255.555 41.7109 253.242 43.0078C250.945 44.3047 248.266 44.9688 245.203 45H235.758ZM240.258 14.5781V41.3203H244.992C248.461 41.3203 251.156 40.2422 253.078 38.0859C255.016 35.9297 255.984 32.8594 255.984 28.875V26.8828C255.984 23.0078 255.07 20 253.242 17.8594C251.43 15.7031 248.852 14.6094 245.508 14.5781H240.258ZM265.43 32.0859C265.43 29.6016 265.914 27.3672 266.883 25.3828C267.867 23.3984 269.227 21.8672 270.961 20.7891C272.711 19.7109 274.703 19.1719 276.938 19.1719C280.391 19.1719 283.18 20.3672 285.305 22.7578C287.445 25.1484 288.516 28.3281 288.516 32.2969V32.6016C288.516 35.0703 288.039 37.2891 287.086 39.2578C286.148 41.2109 284.797 42.7344 283.031 43.8281C281.281 44.9219 279.266 45.4688 276.984 45.4688C273.547 45.4688 270.758 44.2734 268.617 41.8828C266.492 39.4922 265.43 36.3281 265.43 32.3906V32.0859ZM269.789 32.6016C269.789 35.4141 270.438 37.6719 271.734 39.375C273.047 41.0781 274.797 41.9297 276.984 41.9297C279.188 41.9297 280.938 41.0703 282.234 39.3516C283.531 37.6172 284.18 35.1953 284.18 32.0859C284.18 29.3047 283.516 27.0547 282.188 25.3359C280.875 23.6016 279.125 22.7344 276.938 22.7344C274.797 22.7344 273.07 23.5859 271.758 25.2891C270.445 26.9922 269.789 29.4297 269.789 32.6016ZM316.406 39.0234L321.281 19.6406H325.617L318.234 45H314.719L308.555 25.7812L302.555 45H299.039L291.68 19.6406H295.992L300.984 38.625L306.891 19.6406H310.383L316.406 39.0234ZM334.148 19.6406L334.289 22.8281C336.227 20.3906 338.758 19.1719 341.883 19.1719C347.242 19.1719 349.945 22.1953 349.992 28.2422V45H345.656V28.2188C345.641 26.3906 345.219 25.0391 344.391 24.1641C343.578 23.2891 342.305 22.8516 340.57 22.8516C339.164 22.8516 337.93 23.2266 336.867 23.9766C335.805 24.7266 334.977 25.7109 334.383 26.9297V45H330.047V19.6406H334.148ZM361.242 45H356.906V9H361.242V45ZM367.055 32.0859C367.055 29.6016 367.539 27.3672 368.508 25.3828C369.492 23.3984 370.852 21.8672 372.586 20.7891C374.336 19.7109 376.328 19.1719 378.562 19.1719C382.016 19.1719 384.805 20.3672 386.93 22.7578C389.07 25.1484 390.141 28.3281 390.141 32.2969V32.6016C390.141 35.0703 389.664 37.2891 388.711 39.2578C387.773 41.2109 386.422 42.7344 384.656 43.8281C382.906 44.9219 380.891 45.4688 378.609 45.4688C375.172 45.4688 372.383 44.2734 370.242 41.8828C368.117 39.4922 367.055 36.3281 367.055 32.3906V32.0859ZM371.414 32.6016C371.414 35.4141 372.062 37.6719 373.359 39.375C374.672 41.0781 376.422 41.9297 378.609 41.9297C380.812 41.9297 382.562 41.0703 383.859 39.3516C385.156 37.6172 385.805 35.1953 385.805 32.0859C385.805 29.3047 385.141 27.0547 383.812 25.3359C382.5 23.6016 380.75 22.7344 378.562 22.7344C376.422 22.7344 374.695 23.5859 373.383 25.2891C372.07 26.9922 371.414 29.4297 371.414 32.6016ZM411.234 45C410.984 44.5 410.781 43.6094 410.625 42.3281C408.609 44.4219 406.203 45.4688 403.406 45.4688C400.906 45.4688 398.852 44.7656 397.242 43.3594C395.648 41.9375 394.852 40.1406 394.852 37.9688C394.852 35.3281 395.852 33.2812 397.852 31.8281C399.867 30.3594 402.695 29.625 406.336 29.625H410.555V27.6328C410.555 26.1172 410.102 24.9141 409.195 24.0234C408.289 23.1172 406.953 22.6641 405.188 22.6641C403.641 22.6641 402.344 23.0547 401.297 23.8359C400.25 24.6172 399.727 25.5625 399.727 26.6719H395.367C395.367 25.4062 395.812 24.1875 396.703 23.0156C397.609 21.8281 398.828 20.8906 400.359 20.2031C401.906 19.5156 403.602 19.1719 405.445 19.1719C408.367 19.1719 410.656 19.9062 412.312 21.375C413.969 22.8281 414.828 24.8359 414.891 27.3984V39.0703C414.891 41.3984 415.188 43.25 415.781 44.625V45H411.234ZM404.039 41.6953C405.398 41.6953 406.688 41.3438 407.906 40.6406C409.125 39.9375 410.008 39.0234 410.555 37.8984V32.6953H407.156C401.844 32.6953 399.188 34.25 399.188 37.3594C399.188 38.7188 399.641 39.7812 400.547 40.5469C401.453 41.3125 402.617 41.6953 404.039 41.6953ZM420.633 32.1094C420.633 28.2188 421.555 25.0938 423.398 22.7344C425.242 20.3594 427.656 19.1719 430.641 19.1719C433.609 19.1719 435.961 20.1875 437.695 22.2188V9H442.031V45H438.047L437.836 42.2812C436.102 44.4062 433.688 45.4688 430.594 45.4688C427.656 45.4688 425.258 44.2656 423.398 41.8594C421.555 39.4531 420.633 36.3125 420.633 32.4375V32.1094ZM424.969 32.6016C424.969 35.4766 425.562 37.7266 426.75 39.3516C427.938 40.9766 429.578 41.7891 431.672 41.7891C434.422 41.7891 436.43 40.5547 437.695 38.0859V26.4375C436.398 24.0469 434.406 22.8516 431.719 22.8516C429.594 22.8516 427.938 23.6719 426.75 25.3125C425.562 26.9531 424.969 29.3828 424.969 32.6016ZM459.305 45.4688C455.867 45.4688 453.07 44.3438 450.914 42.0938C448.758 39.8281 447.68 36.8047 447.68 33.0234V32.2266C447.68 29.7109 448.156 27.4688 449.109 25.5C450.078 23.5156 451.422 21.9688 453.141 20.8594C454.875 19.7344 456.75 19.1719 458.766 19.1719C462.062 19.1719 464.625 20.2578 466.453 22.4297C468.281 24.6016 469.195 27.7109 469.195 31.7578V33.5625H452.016C452.078 36.0625 452.805 38.0859 454.195 39.6328C455.602 41.1641 457.383 41.9297 459.539 41.9297C461.07 41.9297 462.367 41.6172 463.43 40.9922C464.492 40.3672 465.422 39.5391 466.219 38.5078L468.867 40.5703C466.742 43.8359 463.555 45.4688 459.305 45.4688ZM458.766 22.7344C457.016 22.7344 455.547 23.375 454.359 24.6562C453.172 25.9219 452.438 27.7031 452.156 30H464.859V29.6719C464.734 27.4688 464.141 25.7656 463.078 24.5625C462.016 23.3438 460.578 22.7344 458.766 22.7344ZM486.492 23.5312C485.836 23.4219 485.125 23.3672 484.359 23.3672C481.516 23.3672 479.586 24.5781 478.57 27V45H474.234V19.6406H478.453L478.523 22.5703C479.945 20.3047 481.961 19.1719 484.57 19.1719C485.414 19.1719 486.055 19.2812 486.492 19.5V23.5312Z" fill="#FAFAFA" />
</svg>
